<?xml version="1.0" encoding="utf-8"?>
<!-- Generator: Adobe Illustrator 15.0.0, SVG Export Plug-In . SVG Version: 6.00 Build 0)  -->
<!DOCTYPE svg PUBLIC "-//W3C//DTD SVG 1.1//EN" "http://www.w3.org/Graphics/SVG/1.1/DTD/svg11.dtd">
<svg version="1.1" id="Layer_1" xmlns="http://www.w3.org/2000/svg" xmlns:xlink="http://www.w3.org/1999/xlink" x="0px" y="0px"
	 width="500px" height="500px" viewBox="0 0 500 500" enable-background="new 0 0 500 500" xml:space="preserve">
<g id="Shape_3_copy_6">
	<g>
		<path fill-rule="evenodd" clip-rule="evenodd" fill="#FBE600" d="M495.614,124.167c-9.811-17.039-39.593-18.273-56.645-8.447
			l-119.253,68.731l-30.525,17.593l-173.388-67.88c-1.504-0.591-3.199-0.46-4.604,0.341l-30.596,17.643
			c-1.484,0.854-2.47,2.366-2.654,4.072c-0.118,1.131,0.138,2.261,0.689,3.219c0.276,0.486,0.631,0.933,1.058,1.3l109.994,98.648
			l-31.924,18.398l-74.063,42.695l-64.869-24.566c-1.281-0.486-2.712-0.369-3.895,0.313l-11.908,6.872
			c-1.281,0.735-2.122,2.023-2.272,3.493c-0.099,0.973,0.118,1.933,0.584,2.747c0.249,0.42,0.558,0.813,0.932,1.144l89.867,76.729
			c4.894,3.613,11.468,3.981,16.743,0.946l32.053-18.471h-0.007l94.63-54.543l119.727-68.993l119.254-68.744
			C491.581,167.597,505.441,141.205,495.614,124.167z"/>
	</g>
</g>
</svg>
