<?xml version="1.0" encoding="utf-8"?>
<!-- Generator: Adobe Illustrator 15.0.0, SVG Export Plug-In . SVG Version: 6.00 Build 0)  -->
<!DOCTYPE svg PUBLIC "-//W3C//DTD SVG 1.1//EN" "http://www.w3.org/Graphics/SVG/1.1/DTD/svg11.dtd">
<svg version="1.1" id="Layer_1" xmlns="http://www.w3.org/2000/svg" xmlns:xlink="http://www.w3.org/1999/xlink" x="0px" y="0px"
	 width="500px" height="500px" viewBox="0 0 500 500" enable-background="new 0 0 500 500" xml:space="preserve">
<g id="Shape_3_copy_5">
	<g>
		<path fill-rule="evenodd" clip-rule="evenodd" fill="#F47E48" d="M409.697,12.271c-7.792-13.502-31.409-14.492-44.924-6.701
			l-94.556,54.505L246.006,74.03l-137.49-53.829c-1.206-0.469-2.551-0.368-3.655,0.279L80.598,34.453
			c-1.18,0.686-1.967,1.891-2.106,3.236c-0.089,0.901,0.114,1.789,0.546,2.551c0.228,0.38,0.507,0.736,0.837,1.041l87.222,78.232
			l-25.306,14.585l-58.73,33.845l-51.447-19.48c-1.015-0.38-2.145-0.292-3.083,0.254l-9.441,5.444
			c-1.016,0.584-1.688,1.612-1.803,2.779c-0.076,0.761,0.089,1.523,0.457,2.17c0.203,0.343,0.444,0.647,0.749,0.914l71.256,60.837
			c3.883,2.869,9.099,3.161,13.274,0.762l25.419-14.657l75.038-43.249l94.937-54.721l94.556-54.492
			C406.486,46.712,417.477,25.786,409.697,12.271z"/>
	</g>
</g>
<g id="Shape_240">
	<g>
		<polygon fill-rule="evenodd" clip-rule="evenodd" fill="#F47E48" points="342.12,230.738 335.166,241.093 437.527,318.364 
			28.58,318.364 28.58,330.853 478.542,330.853 		"/>
	</g>
</g>
<g id="Shape_240_copy">
	<g>
		<polygon fill-rule="evenodd" clip-rule="evenodd" fill="#F47E48" points="482.883,397.388 28.593,397.388 165.014,499.672 
			171.968,489.305 69.608,409.875 482.883,409.875 		"/>
	</g>
</g>
</svg>
