<?xml version="1.0" encoding="utf-8"?>
<!-- Generator: Adobe Illustrator 15.0.0, SVG Export Plug-In . SVG Version: 6.00 Build 0)  -->
<!DOCTYPE svg PUBLIC "-//W3C//DTD SVG 1.1//EN" "http://www.w3.org/Graphics/SVG/1.1/DTD/svg11.dtd">
<svg version="1.1" id="Layer_1" xmlns="http://www.w3.org/2000/svg" xmlns:xlink="http://www.w3.org/1999/xlink" x="0px" y="0px"
	 width="500px" height="500px" viewBox="0 0 500 500" enable-background="new 0 0 500 500" xml:space="preserve">
<g id="Shape_191">
	<g>
		<path fill-rule="evenodd" clip-rule="evenodd" fill="#FFFFFF" d="M289.818,249.974L491.206,48.603
			c11.112-11.128,11.112-29.146,0-40.258c-11.129-11.145-29.162-11.145-40.274,0L249.544,209.716L48.172,8.344
			C37.044-2.8,19.027-2.8,7.898,8.344c-11.128,11.112-11.128,29.13,0,40.258l201.387,201.372L7.898,451.361
			c-11.128,11.129-11.128,29.146,0,40.274c5.556,5.556,12.847,8.351,20.137,8.351c7.291,0,14.565-2.795,20.137-8.351
			l201.372-201.371l201.388,201.371c5.556,5.556,12.847,8.351,20.137,8.351c7.274,0,14.565-2.795,20.138-8.351
			c11.112-11.129,11.112-29.146,0-40.274L289.818,249.974z"/>
	</g>
</g>
</svg>
