<?xml version="1.0" encoding="utf-8"?>
<!-- Generator: Adobe Illustrator 15.0.0, SVG Export Plug-In . SVG Version: 6.00 Build 0)  -->
<!DOCTYPE svg PUBLIC "-//W3C//DTD SVG 1.1//EN" "http://www.w3.org/Graphics/SVG/1.1/DTD/svg11.dtd">
<svg version="1.1" id="Layer_1" xmlns="http://www.w3.org/2000/svg" xmlns:xlink="http://www.w3.org/1999/xlink" x="0px" y="0px"
	 width="500px" height="500px" viewBox="0 0 500 500" enable-background="new 0 0 500 500" xml:space="preserve">
<g id="Shape_3_copy_5">
	<g>
		<path fill-rule="evenodd" clip-rule="evenodd" fill="#F47E48" d="M465.682,74.545c-9.237-16.042-37.28-17.209-53.311-7.959
			l-112.272,64.709l-28.751,16.569l-163.235-63.91c-1.418-0.553-3.016-0.43-4.336,0.332l-28.805,16.595
			c-1.4,0.811-2.321,2.236-2.493,3.833c-0.111,1.069,0.129,2.125,0.645,3.034c0.264,0.455,0.596,0.872,1.001,1.229l103.546,92.875
			l-30.054,17.32l-69.721,40.179l-61.068-23.117c-1.21-0.455-2.561-0.344-3.673,0.294L1.94,242.99
			c-1.198,0.7-1.996,1.916-2.137,3.304c-0.092,0.909,0.11,1.806,0.553,2.58c0.233,0.393,0.528,0.762,0.878,1.069l84.604,72.24
			c4.606,3.415,10.797,3.759,15.76,0.896l30.181-17.394h-0.006l89.087-51.346l112.714-64.955l112.259-64.71
			C461.886,115.425,474.931,90.576,465.682,74.545z"/>
	</g>
</g>
<g id="Shape_240">
	<g>
		<polygon fill-rule="evenodd" clip-rule="evenodd" fill="#F47E48" points="367.732,342.094 361.001,352.13 460.08,426.912 
			18.124,426.912 18.124,438.999 499.781,438.999 		"/>
	</g>
</g>
</svg>
